<?xml version="1.0" encoding="UTF-8" standalone="no"?>
<!DOCTYPE svg PUBLIC "-//W3C//DTD SVG 1.1//EN" "http://www.w3.org/Graphics/SVG/1.1/DTD/svg11.dtd">
<svg width="100%" height="100%" viewBox="0 0 600 300" version="1.1" xmlns="http://www.w3.org/2000/svg" xmlns:xlink="http://www.w3.org/1999/xlink" xml:space="preserve" xmlns:serif="http://www.serif.com/" style="fill-rule:evenodd;clip-rule:evenodd;stroke-linecap:round;stroke-linejoin:round;stroke-miterlimit:1.5;">
    <g id="Oven" transform="matrix(1,0,0,1,-2.5974,-74.4589)">
        <g transform="matrix(1,0,0,1,-0.865801,-137.894)">
            <path d="M31.626,303.579C31.626,303.579 221.667,309.028 264.58,301.536C307.493,294.043 280.928,238.188 266.624,225.247C252.319,212.305 24.133,208.899 17.322,223.203C10.51,237.507 18.003,302.217 31.626,303.579Z" style="fill:rgb(170,129,170);"/>
            <path d="M31.526,304.574L31.597,304.579C31.597,304.579 221.802,310.02 264.752,302.521C273.633,300.97 279.622,297.387 283.428,292.588C289.114,285.419 289.937,275.467 288.041,265.252C284.933,248.5 274.548,231.068 267.294,224.505C266.308,223.613 264.395,222.727 261.644,221.921C257.779,220.789 252.185,219.747 245.248,218.809C199.369,212.606 94.341,210.849 44.395,215.685C33.36,216.753 24.989,218.156 20.486,219.884C18.248,220.743 16.898,221.767 16.419,222.773C14.95,225.859 14.099,231.222 13.848,237.792C13.274,252.817 15.745,274.251 20.288,288.622C21.991,294.009 23.997,298.416 26.222,301.176C27.867,303.217 29.664,304.388 31.526,304.574ZM31.626,303.579C31.626,303.579 221.667,309.028 264.58,301.536C307.493,294.043 280.928,238.188 266.624,225.247C252.319,212.305 24.133,208.899 17.322,223.203C10.51,237.507 18.003,302.217 31.626,303.579Z"/>
        </g>
        <g transform="matrix(1,0,0,1,-0.865801,-137.894)">
            <path d="M30.264,304.26C30.264,304.26 8.467,333.55 9.829,341.724C11.191,349.897 274.797,347.854 282.971,342.405C291.145,336.956 274.116,302.898 264.58,302.898C255.044,302.898 70.452,313.796 30.264,304.26Z" style="fill:rgb(94,73,94);"/>
            <path d="M30.494,303.287L29.461,303.663C29.461,303.663 18.727,318.091 12.755,329.565C11.191,332.57 9.953,335.377 9.299,337.683C8.824,339.358 8.66,340.794 8.843,341.888C8.897,342.216 9.075,342.568 9.462,342.883C9.757,343.124 10.232,343.375 10.894,343.602C14.372,344.793 24.094,345.75 37.923,346.455C92.703,349.246 212.52,348.409 261.605,345.729C270.24,345.258 276.697,344.728 280.246,344.152C281.972,343.873 283.078,343.535 283.526,343.237C285.062,342.213 285.913,340.364 286.09,337.921C286.325,334.691 285.392,330.348 283.713,325.798C280.819,317.956 275.728,309.487 270.942,305.105C268.705,303.057 266.49,301.898 264.58,301.898C255.053,301.898 70.643,312.814 30.494,303.287ZM30.264,304.26C30.264,304.26 8.467,333.55 9.829,341.724C11.191,349.897 274.797,347.854 282.971,342.405C291.145,336.956 274.116,302.898 264.58,302.898C255.044,302.898 70.452,313.796 30.264,304.26Z"/>
        </g>
        <g transform="matrix(1,0,0,1,-0.865801,-137.894)">
            <path d="M9.148,341.043C9.148,341.043 3.699,351.941 10.51,353.303C17.322,354.666 279.565,356.709 284.333,353.303C289.102,349.897 289.783,344.448 283.652,341.043C277.522,337.637 83.751,360.796 9.148,341.043Z" style="fill:rgb(170,129,170);"/>
            <path d="M9.404,340.076L8.253,340.595C8.253,340.595 6.192,344.743 6.088,348.37C6.042,350.008 6.395,351.539 7.351,352.652C8.013,353.423 8.964,354.014 10.314,354.284C15.768,355.375 184.841,356.92 254.696,355.742C268.706,355.505 278.737,355.157 282.679,354.679C283.925,354.528 284.673,354.29 284.915,354.117C287.602,352.198 289.08,349.668 289.08,347.173C289.08,344.663 287.613,342.099 284.138,340.168C283.713,339.932 282.516,339.734 280.606,339.702C276.734,339.636 269.533,340.009 259.847,340.633C204.786,344.181 69.01,355.858 9.404,340.076ZM9.148,341.043C9.148,341.043 3.699,351.941 10.51,353.303C17.322,354.666 279.565,356.709 284.333,353.303C289.102,349.897 289.783,344.448 283.652,341.043C277.522,337.637 83.751,360.796 9.148,341.043Z"/>
        </g>
        <g transform="matrix(1,0,0,1,-3.59041,-137.894)">
            <path d="M12.196,355.347C12.196,355.347 -5.145,494.016 13.928,507.728C33,521.44 266.947,535.26 279.208,513.463C291.469,491.666 296.237,348.624 285.338,353.392C274.44,358.16 69.413,363.432 12.196,355.347ZM46.254,388.131C46.254,388.131 249.237,384.044 255.367,393.58C261.498,403.116 259.454,467.825 254.686,476.68C249.918,485.535 52.384,487.579 44.21,476.68C36.036,465.782 40.123,387.449 46.254,388.131Z" style="fill:rgb(94,73,94);"/>
            <path d="M12.336,354.357L11.204,355.223C11.204,355.223 2.698,423.264 4.143,468.798C4.517,480.587 5.563,490.876 7.578,498.117C8.989,503.187 10.921,506.798 13.344,508.54C15.006,509.735 18.232,510.958 22.773,512.132C29.365,513.838 38.797,515.499 50.194,517.041C94.371,523.016 168.157,527.214 220.139,525.427C242.516,524.658 260.868,522.77 271.135,519.46C275.835,517.945 278.894,516.06 280.079,513.953C283.055,508.662 285.631,496.318 287.62,480.663C292.218,444.469 293.839,390.466 291.056,366.003C290.549,361.546 289.89,358.052 289.088,355.792C288.632,354.507 288.107,353.587 287.563,353.044C286.758,352.24 285.876,352.065 284.937,352.476C282.786,353.417 272.963,354.332 258.18,355.204C198.331,358.733 58.072,360.82 12.336,354.357ZM12.196,355.347C12.196,355.347 -5.145,494.016 13.928,507.728C33,521.44 266.947,535.26 279.208,513.463C291.469,491.666 296.237,348.624 285.338,353.392C274.44,358.16 69.413,363.432 12.196,355.347ZM46.254,388.131C46.254,388.131 249.237,384.044 255.367,393.58C261.498,403.116 259.454,467.825 254.686,476.68C249.918,485.535 52.384,487.579 44.21,476.68C36.036,465.782 40.123,387.449 46.254,388.131ZM46.247,389.129L46.274,389.13C46.274,389.13 176.12,386.514 231.196,390.349C240.746,391.014 248.028,391.865 251.954,392.969C252.731,393.188 253.367,393.414 253.85,393.653C254.171,393.813 254.414,393.947 254.526,394.121C255.46,395.573 256.159,398.38 256.716,402.088C257.587,407.897 258.039,415.847 258.149,424.413C258.343,439.441 257.485,456.361 255.974,466.976C255.348,471.38 254.634,474.669 253.806,476.206C253.703,476.396 253.411,476.522 253.022,476.702C252.089,477.131 250.658,477.533 248.789,477.922C241.181,479.508 226.615,480.764 208.617,481.646C160.495,484.005 87.903,483.659 57.865,479.523C53.433,478.913 49.942,478.224 47.616,477.443C46.301,477.001 45.392,476.589 45.01,476.08C43.108,473.545 41.968,467.227 41.299,459.123C39.695,439.702 41.149,410.2 43.884,396.224C44.448,393.34 45.054,391.139 45.714,389.871C45.883,389.546 46.173,389.212 46.247,389.129Z"/>
        </g>
        <g transform="matrix(1,0,0,1,-0.865801,-137.894)">
            <path d="M30.587,365.653C30.587,365.653 21.732,371.783 30.587,375.189C39.442,378.594 246.512,381.319 254.686,379.276C262.86,377.232 264.222,365.653 254.686,364.971C245.15,364.29 55.109,366.334 30.587,365.653Z" style="fill:rgb(170,129,170);"/>
            <path d="M30.615,364.653L30.018,364.83C30.018,364.83 28.327,366.001 27.076,367.632C26.139,368.854 25.481,370.326 25.693,371.771C25.914,373.285 27.069,374.907 30.228,376.122C32.021,376.812 41.838,377.516 56.468,378.117C114.356,380.496 248.38,381.883 254.929,380.246C260.43,378.87 263.123,373.605 262.132,369.479C261.457,366.666 259.132,364.286 254.758,363.974C245.22,363.293 55.141,365.334 30.615,364.653ZM30.587,365.653C30.587,365.653 21.732,371.783 30.587,375.189C39.442,378.594 246.512,381.319 254.686,379.276C262.86,377.232 264.222,365.653 254.686,364.971C245.15,364.29 55.109,366.334 30.587,365.653Z"/>
        </g>
        <g transform="matrix(1,0,0,1,-0.865801,-141.731)">
            <ellipse cx="72.819" cy="320.696" rx="27.927" ry="8.174" style="fill:rgb(8,0,8);"/>
        </g>
        <g transform="matrix(1,0,0,1,-2.2608,-142.079)">
            <ellipse cx="87.237" cy="340.755" rx="25.808" ry="9.068" style="fill:rgb(8,0,8);"/>
        </g>
        <g transform="matrix(1,0,0,1,-17.9546,-122.898)">
            <ellipse cx="227.609" cy="317.912" rx="33.306" ry="8.544" style="fill:rgb(8,0,8);"/>
        </g>
        <g transform="matrix(1,0,0,1,-0.865801,-137.894)">
            <ellipse cx="212.787" cy="313.901" rx="19.879" ry="5.58" style="fill:rgb(8,0,8);"/>
        </g>
        <g transform="matrix(0.769631,0,0,0.755621,18.0778,81.9548)">
            <ellipse cx="47.81" cy="30.519" rx="14.286" ry="12.554" style="fill:rgb(94,73,94);stroke:black;stroke-width:1.31px;"/>
        </g>
        <g transform="matrix(0.769631,0,0,0.755621,18.0778,81.9548)">
            <path d="M40.421,19.407C40.421,19.407 45.162,36.697 48.932,40.331C51.218,42.534 55.35,42.662 55.316,39.267C55.286,36.343 47.479,17.827 45.031,17.28C43.003,16.826 41.13,16.925 40.421,19.407Z" style="fill:rgb(94,73,94);stroke:black;stroke-width:1.31px;"/>
        </g>
        <g transform="matrix(0.769631,0,0,0.755621,31.9306,111.877)">
            <ellipse cx="47.81" cy="30.519" rx="14.286" ry="12.554" style="fill:rgb(94,73,94);stroke:black;stroke-width:1.31px;"/>
        </g>
        <g transform="matrix(0.769631,0,0,0.755621,31.9306,111.877)">
            <path d="M40.421,19.407C40.421,19.407 45.162,36.697 48.932,40.331C51.218,42.534 55.35,42.662 55.316,39.267C55.286,36.343 47.479,17.827 45.031,17.28C43.003,16.826 41.13,16.925 40.421,19.407Z" style="fill:rgb(94,73,94);stroke:black;stroke-width:1.31px;"/>
        </g>
        <g transform="matrix(0.769631,0,0,0.755621,198.718,78.6301)">
            <ellipse cx="47.81" cy="30.519" rx="14.286" ry="12.554" style="fill:rgb(94,73,94);stroke:black;stroke-width:1.31px;"/>
        </g>
        <g transform="matrix(0.769631,0,0,0.755621,198.718,78.6301)">
            <path d="M40.421,19.407C40.421,19.407 45.162,36.697 48.932,40.331C51.218,42.534 55.35,42.662 55.316,39.267C55.286,36.343 47.479,17.827 45.031,17.28C43.003,16.826 41.13,16.925 40.421,19.407Z" style="fill:rgb(94,73,94);stroke:black;stroke-width:1.31px;"/>
        </g>
        <g transform="matrix(0.769631,0,0,0.755621,167.134,109.66)">
            <ellipse cx="47.81" cy="30.519" rx="14.286" ry="12.554" style="fill:rgb(94,73,94);stroke:black;stroke-width:1.31px;"/>
        </g>
        <g transform="matrix(0.769631,0,0,0.755621,167.134,109.66)">
            <path d="M40.421,19.407C40.421,19.407 45.162,36.697 48.932,40.331C51.218,42.534 55.35,42.662 55.316,39.267C55.286,36.343 47.479,17.827 45.031,17.28C43.003,16.826 41.13,16.925 40.421,19.407Z" style="fill:rgb(94,73,94);stroke:black;stroke-width:1.31px;"/>
        </g>
    </g>
    <g id="Time">
        <path d="M103.654,33.55C110.162,27.042 143.481,27.489 163.394,30.952C183.307,34.416 173.784,53.463 161.662,53.463C149.541,53.463 106.251,63.853 103.654,55.195C101.056,46.537 99.325,37.879 103.654,33.55Z" style="fill:rgb(154,154,154);stroke:black;stroke-width:1px;"/>
    </g>
    <g id="Counter" transform="matrix(1,0,0,1,-2.5974,-74.4589)">
        <g transform="matrix(1,0,0,1,-0.865801,-137.894)">
            <path d="M266.87,302.906L287.361,341.907L623.947,343.237L609.792,302.368L266.87,302.906Z" style="fill:none;stroke:black;stroke-width:1px;"/>
        </g>
        <g transform="matrix(1,0,0,1,-0.865801,-137.894)">
            <path d="M288.046,342.01L287.904,355.886L604.992,357.105L604.31,344.163L288.046,342.01Z" style="fill:none;stroke:black;stroke-width:1px;"/>
        </g>
    </g>
    <g id="Mixer" transform="matrix(1,0,0,1,22.5108,-68.3983)">
        <g transform="matrix(1,0,0,1,-0.865801,-137.894)">
            <path d="M526.069,250.351C525.176,250.798 507.309,254.014 500.836,251.335C494.364,248.657 500.055,227.429 501.283,226.114C504.408,222.766 526.281,215.623 554.851,220.31C567.127,228.792 560.877,243.747 561.547,247.095C562.216,250.443 555.967,247.318 554.404,254.46C555.297,262.272 559.315,290.842 563.332,293.52C567.35,296.199 571.144,298.654 570.028,300.886C568.912,303.118 534.945,320.583 509.541,314.947C492.112,311.081 491.373,310.652 491.239,309.055C490.71,302.764 517.353,296.779 522.933,295.886C528.513,294.993 534.878,257.3 533.727,252.059C533.151,249.434 528.747,247.762 526.069,250.351Z" style="fill:rgb(178,232,227);"/>
            <path d="M526.516,251.246L526.764,251.07C528.039,249.838 529.809,249.844 531.118,250.478C531.927,250.871 532.581,251.501 532.75,252.273C532.981,253.324 532.869,255.739 532.54,258.91C531.742,266.605 529.57,278.57 526.99,286.714C526.068,289.623 525.104,292.035 524.122,293.551C523.839,293.989 523.56,294.345 523.277,294.598C523.104,294.753 522.946,294.871 522.775,294.899C518.826,295.53 504.444,298.692 496.352,302.709C494.15,303.802 492.402,304.975 491.381,306.159C490.542,307.133 490.159,308.142 490.242,309.139C490.276,309.542 490.353,309.894 490.54,310.233C490.788,310.683 491.249,311.152 492.318,311.621C494.255,312.47 498.75,313.578 509.325,315.924C529.894,320.487 556.02,310.126 566.222,304.626C568.059,303.637 569.391,302.797 570.106,302.225C570.562,301.861 570.819,301.54 570.923,301.333C571.54,300.099 571.211,298.783 570.07,297.45C568.788,295.951 566.385,294.353 563.887,292.688C563.507,292.435 563.167,291.86 562.792,291.083C562.098,289.646 561.42,287.57 560.767,285.121C558.19,275.456 556.064,260.105 555.417,254.516C556.429,250.231 559.466,250.338 560.965,249.741C561.55,249.508 561.987,249.189 562.262,248.761C562.547,248.317 562.694,247.732 562.527,246.898C562.435,246.435 562.52,245.717 562.644,244.804C562.86,243.207 563.24,241.102 563.433,238.744C563.934,232.606 563.155,224.833 555.419,219.488L555.013,219.324C534.812,216.009 517.926,218.562 508.529,221.545C504.303,222.886 501.546,224.367 500.552,225.431C500.259,225.745 499.679,227.032 499.114,228.936C497.928,232.934 496.512,239.838 496.848,245.02C496.98,247.057 497.39,248.841 498.137,250.136C498.709,251.128 499.477,251.855 500.454,252.259C503.796,253.642 510.078,253.553 515.642,253.01C521.212,252.468 526.055,251.477 526.516,251.246ZM526.069,250.351C525.176,250.798 507.309,254.014 500.836,251.335C494.364,248.657 500.055,227.429 501.283,226.114C504.408,222.766 526.281,215.623 554.851,220.31C567.127,228.792 560.877,243.747 561.547,247.095C562.216,250.443 555.967,247.318 554.404,254.46C555.297,262.272 559.315,290.842 563.332,293.52C567.35,296.199 571.144,298.654 570.028,300.886C568.912,303.118 534.945,320.583 509.541,314.947C492.112,311.081 491.373,310.652 491.239,309.055C490.71,302.764 517.353,296.779 522.933,295.886C528.513,294.993 534.878,257.3 533.727,252.059C533.151,249.434 528.747,247.762 526.069,250.351Z"/>
        </g>
        <g transform="matrix(1,0,0,1,-0.865801,-137.894)">
            <path d="M498.906,238.98L497.037,239.369C496.711,242.733 496.866,242.059 496.851,244.406L497.265,245.224C497.994,245.75 499.537,246.193 501.718,246.467C506.301,247.042 513.941,247.058 522.292,246.754C536.546,246.235 552.882,244.794 559.534,243.688C560.762,243.484 561.676,243.287 562.212,243.111C562.586,242.989 562.836,242.849 562.974,242.738L563.346,242.04C563.473,240.505 563.355,239.257 563.538,237.097L562.261,236.053C550.971,239.36 525.663,242.095 510.382,241.433C506.533,241.267 503.331,240.889 501.181,240.234C500.035,239.886 499.211,239.53 498.906,238.98ZM498.032,239.465C501.298,245.358 546.312,241.766 562.542,237.012C562.359,239.173 562.477,240.422 562.349,241.958C560.117,243.743 503.278,248.329 497.851,244.413C497.865,242.107 497.713,242.769 498.032,239.465Z"/>
        </g>
        <g transform="matrix(1,0,0,1,-0.865801,-137.894)">
            <path d="M504.459,252.657C504.459,252.657 506.056,257.461 508.483,257.376C510.91,257.291 519.751,256.697 521.164,256.219C522.576,255.74 523.766,252.983 523.008,251.723C522.249,250.463 522.783,255.304 504.459,252.657Z" style="fill:rgb(178,232,227);"/>
            <path d="M504.602,251.667L503.51,252.972C503.51,252.972 504.382,255.557 505.815,257.079C506.584,257.897 507.514,258.411 508.518,258.375C511,258.289 520.039,257.655 521.484,257.166C522.412,256.852 523.324,255.841 523.822,254.65C524.336,253.423 524.378,252.06 523.864,251.207C523.593,250.756 523.293,250.607 523.042,250.545C522.767,250.476 522.437,250.487 522.027,250.736C521.22,251.227 518.72,253.707 504.602,251.667ZM504.459,252.657C504.459,252.657 506.056,257.461 508.483,257.376C510.91,257.291 519.751,256.697 521.164,256.219C522.576,255.74 523.766,252.983 523.008,251.723C522.249,250.463 522.783,255.304 504.459,252.657Z"/>
        </g>
        <g transform="matrix(1,0,0,1,-0.865801,-137.894)">
            <path d="M501.829,249.175C501.829,249.175 508.643,251.939 510.612,251.013" style="fill:none;stroke:black;stroke-width:0.5px;stroke-linejoin:miter;stroke-miterlimit:1;"/>
        </g>
        <g transform="matrix(1,0,0,1,-0.865801,-137.894)">
            <path d="M536.875,249.953C536.875,249.953 539.282,249.297 541.301,249.798" style="fill:none;stroke:black;stroke-width:0.5px;stroke-linejoin:miter;stroke-miterlimit:1;"/>
        </g>
        <g transform="matrix(1,0,0,1,-0.865801,-137.894)">
            <path d="M544.762,250.678C544.762,250.678 546.402,252.621 546.442,253.764" style="fill:none;stroke:black;stroke-width:0.5px;stroke-linejoin:miter;stroke-miterlimit:1;"/>
        </g>
        <g transform="matrix(1,0,0,1,-0.865801,-137.894)">
            <path d="M548.042,254.565C548.042,254.565 551.877,253.86 552.483,254.839" style="fill:none;stroke:black;stroke-width:0.5px;stroke-linejoin:miter;stroke-miterlimit:1;"/>
        </g>
        <g transform="matrix(1,0,0,1,-0.865801,-137.894)">
            <path d="M543.646,255.576C543.646,255.576 540.55,256.971 539.236,256.159" style="fill:none;stroke:black;stroke-width:0.5px;stroke-linejoin:miter;stroke-miterlimit:1;"/>
        </g>
        <g transform="matrix(1,0,0,1,-1.34394,-139.307)">
            <ellipse cx="499.775" cy="235.382" rx="3.704" ry="3.73" style="fill:rgb(232,231,226);"/>
            <path d="M499.775,231.152C497.456,231.152 495.571,233.047 495.571,235.382C495.571,237.718 497.456,239.612 499.775,239.612C502.094,239.612 503.978,237.718 503.978,235.382C503.978,233.047 502.094,231.152 499.775,231.152ZM499.775,231.652C501.819,231.652 503.478,233.324 503.478,235.382C503.478,237.441 501.819,239.112 499.775,239.112C497.731,239.112 496.071,237.441 496.071,235.382C496.071,233.324 497.731,231.652 499.775,231.652Z"/>
        </g>
        <g transform="matrix(1,0,0,1,-0.865801,-137.894)">
            <path d="M500.482,231.07C500.482,231.07 503.324,234.687 500.105,236.657" style="fill:none;stroke:black;stroke-width:0.25px;stroke-linejoin:miter;stroke-miterlimit:1;"/>
        </g>
        <g transform="matrix(1,0,0,1,-0.865801,-137.894)">
            <path d="M497.526,232.575C497.989,232.559 498.344,232.517 498.76,232.707C498.968,232.802 499.423,232.663 499.516,232.564C499.559,232.517 500.197,232.599 500.337,232.594" style="fill:none;stroke:black;stroke-width:0.25px;stroke-linejoin:miter;stroke-miterlimit:1;"/>
        </g>
        <g transform="matrix(1,0,0,1,-0.865801,-137.894)">
            <path d="M497.004,234.408C497.21,234.275 497.747,233.942 498.047,234.079C498.125,234.115 498.112,234.253 498.172,234.309C498.321,234.447 499.176,234.358 499.341,234.268C499.564,234.146 500.217,234.193 500.227,234.471" style="fill:none;stroke:black;stroke-width:0.25px;stroke-linejoin:miter;stroke-miterlimit:1;"/>
        </g>
        <g transform="matrix(1,0,0,1,-0.865801,-137.894)">
            <path d="M495.695,232.112C495.695,232.112 492.511,231.462 492.139,234.226C491.767,236.991 495.092,236.641 495.537,235.981C495.982,235.322 494.196,234.447 495.695,232.112Z"/>
        </g>
        <g transform="matrix(1,0,0,1,-0.865801,-137.894)">
            <path d="M548.35,241.736C548.35,241.736 546.566,242.618 547.272,244.408C547.979,246.198 549.265,246.154 550.247,245.768C551.229,245.382 553.08,241.395 548.35,241.736Z"/>
        </g>
        <g transform="matrix(1,0,0,1,-0.865801,-137.894)">
            <path d="M547.316,242.299L544.091,242.177C544.091,242.177 543.525,242.724 543.777,243.242C544.03,243.76 546.895,243.66 547.179,243.416C547.463,243.172 547.316,242.299 547.316,242.299Z"/>
        </g>
        <g transform="matrix(1,0,0,1,-0.865801,-137.894)">
            <path d="M543.573,242.43C543.573,242.43 535.22,242.956 535.234,243.365C535.248,243.774 542.608,243.283 543.6,243.19C544.592,243.097 543.573,242.43 543.573,242.43Z"/>
        </g>
        <g transform="matrix(1,0,0,1,-0.865801,-137.894)">
            <path d="M534.425,241.988L534.447,242.631" style="fill:none;stroke:black;stroke-width:0.25px;stroke-linejoin:miter;stroke-miterlimit:1;"/>
        </g>
        <g transform="matrix(1,0,0,1,-0.865801,-137.894)">
            <path d="M535.768,241.883L535.782,242.292" style="fill:none;stroke:black;stroke-width:0.25px;stroke-linejoin:miter;stroke-miterlimit:1;"/>
        </g>
        <g transform="matrix(1,0,0,1,-0.865801,-137.894)">
            <path d="M537.564,241.352L537.586,241.995" style="fill:none;stroke:black;stroke-width:0.25px;stroke-linejoin:miter;stroke-miterlimit:1;"/>
        </g>
        <g transform="matrix(1,0,0,1,-0.865801,-137.894)">
            <path d="M538.967,241.303L539.046,241.885" style="fill:none;stroke:black;stroke-width:0.25px;stroke-linejoin:miter;stroke-miterlimit:1;"/>
        </g>
        <g transform="matrix(1,0,0,1,-0.865801,-137.894)">
            <path d="M540.78,241.239L540.627,241.889" style="fill:none;stroke:black;stroke-width:0.25px;stroke-linejoin:miter;stroke-miterlimit:1;"/>
        </g>
        <g transform="matrix(1,0,0,1,-0.865801,-137.894)">
            <path d="M542.242,241.188L542.091,241.896" style="fill:none;stroke:black;stroke-width:0.25px;stroke-linejoin:miter;stroke-miterlimit:1;"/>
        </g>
        <g transform="matrix(1,0,0,0.760484,-4.74414,-79.8506)">
            <ellipse cx="516.508" cy="262.909" rx="27.527" ry="5.471" style="fill:rgb(232,231,226);fill-opacity:0.35;"/>
            <path d="M516.508,256.123C505.751,256.123 496.412,257.356 491.776,259.133C490.173,259.747 489.081,260.482 488.556,261.192C488.149,261.744 487.981,262.335 487.981,262.909C487.981,263.483 488.149,264.073 488.556,264.625C489.081,265.335 490.173,266.07 491.776,266.684C496.412,268.461 505.751,269.694 516.508,269.694C527.266,269.694 536.605,268.461 541.241,266.684C542.844,266.07 543.936,265.335 544.46,264.625C544.868,264.073 545.036,263.483 545.036,262.909C545.036,262.335 544.868,261.744 544.46,261.192C543.936,260.482 542.844,259.747 541.241,259.133C536.605,257.356 527.266,256.123 516.508,256.123ZM516.508,257.438C531.701,257.438 544.036,259.889 544.036,262.909C544.036,265.928 531.701,268.38 516.508,268.38C501.316,268.38 488.981,265.928 488.981,262.909C488.981,259.889 501.316,257.438 516.508,257.438Z"/>
        </g>
        <g transform="matrix(1,0,0,1,-0.718508,-138.793)">
            <ellipse cx="513.206" cy="307.472" rx="15.794" ry="2.039"/>
        </g>
        <g transform="matrix(1,0,0,1,-0.865801,-137.894)">
            <path d="M484.986,259.112C484.986,259.112 484.581,295.169 499.395,304.957C511.71,307.275 515.527,307.409 524.204,304.213C538.669,298.883 542.882,265.382 540.374,258.796C536.822,260.547 513.36,269.613 484.986,259.112Z" style="fill:rgb(232,231,226);fill-opacity:0.43;"/>
            <path d="M485.333,258.174L483.986,259.101C483.986,259.101 483.839,272.209 486.952,284.831C489.072,293.421 492.735,301.755 498.844,305.792L499.21,305.94C511.789,308.307 515.687,308.416 524.55,305.151C530.57,302.933 534.966,296.088 537.808,288.158C540.718,280.04 542.044,270.823 542.055,264.649C542.059,261.88 541.788,259.699 541.309,258.44L539.932,257.899C536.431,259.625 513.302,268.525 485.333,258.174ZM484.986,259.112C484.986,259.112 484.581,295.169 499.395,304.957C511.71,307.275 515.527,307.409 524.204,304.213C538.669,298.883 542.882,265.382 540.374,258.796C536.822,260.547 513.36,269.613 484.986,259.112Z"/>
        </g>
    </g>
    <g transform="matrix(1,0,0,1,21.645,-206.293)">
        <g id="Paddle">
            <path d="M512.167,257.839L511.468,263.403C511.468,263.403 500.238,264.152 497.132,267.298C494.026,270.444 496.492,295.014 510.032,299.008C523.571,303.002 528.308,285.148 531.061,277.012C533.814,268.876 521.53,265.017 518.115,264.421C514.699,263.826 515.89,256.995 515.89,256.995C515.89,256.995 512.531,258.005 512.167,257.839ZM511.253,264.338C507.332,264.929 499.032,266.398 498.419,268.325C498.028,269.554 497.691,275.964 499.095,282.482C508.207,284.59 514.035,280.841 514.035,280.841C514.035,280.841 514.686,283.085 514.348,283.633C514.009,284.181 499.573,284.186 499.573,284.186C499.573,284.186 499.53,284.082 499.376,283.692C500.996,290.186 504.45,296.475 511.409,297.53C513.063,297.781 514.549,297.692 515.884,297.334C515.828,297.327 515.801,297.297 515.81,297.236C517.237,291.306 512.138,268.25 511.253,264.338ZM516.384,297.185C526.206,293.966 527.608,275.822 528.598,272.988C529.735,269.733 513.278,264.054 513.278,264.054C513.278,264.054 513.116,264.074 512.826,264.113L518.502,295.968C518.502,295.968 517.175,296.83 516.384,297.185Z" style="fill:rgb(183,180,166);"/>
            <path d="M512.583,256.93L511.175,257.715L510.577,262.473C508.853,262.631 504.741,263.091 501.314,264.111C499.256,264.723 497.445,265.558 496.421,266.595C495.953,267.069 495.542,267.911 495.288,269.069C494.796,271.306 494.795,274.88 495.445,278.831C496.273,283.863 498.151,289.507 501.319,293.755C503.501,296.68 506.291,298.947 509.749,299.967C517.027,302.114 521.969,298.457 525.431,293.102C528.699,288.047 530.612,281.46 532.008,277.332C533.259,273.637 531.82,270.706 529.344,268.491C525.918,265.427 520.433,263.81 518.286,263.436C517.341,263.271 517.021,262.331 516.839,261.365C516.475,259.433 516.875,257.166 516.875,257.166L515.602,256.037L512.307,256.857C512.307,256.857 512.53,256.905 512.583,256.93ZM512.167,257.839L511.468,263.403C511.468,263.403 500.238,264.152 497.132,267.298C494.026,270.444 496.492,295.014 510.032,299.008C523.571,303.002 528.308,285.148 531.061,277.012C533.814,268.876 521.53,265.017 518.115,264.421C514.699,263.826 515.89,256.995 515.89,256.995C515.89,256.995 512.531,258.005 512.167,257.839ZM511.253,264.338C507.332,264.929 499.032,266.398 498.419,268.325C498.028,269.554 497.691,275.964 499.095,282.482C508.207,284.59 514.035,280.841 514.035,280.841C514.035,280.841 514.686,283.085 514.348,283.633C514.009,284.181 499.573,284.186 499.573,284.186C499.573,284.186 499.53,284.082 499.376,283.692C500.996,290.186 504.45,296.475 511.409,297.53C513.063,297.781 514.549,297.692 515.884,297.334C515.828,297.327 515.801,297.297 515.81,297.236C517.237,291.306 512.138,268.25 511.253,264.338ZM513.214,264.062C513.141,264.071 513.009,264.088 512.826,264.113L518.502,295.968C518.502,295.968 517.175,296.83 516.384,297.185C526.206,293.966 527.608,275.822 528.598,272.988C529.669,269.921 515.122,264.702 513.436,264.109L513.362,264.553L513.255,264.699L513.214,264.062ZM514.143,284.741C514.327,285.984 514.492,287.203 514.629,288.371C515.03,291.778 515.216,294.734 514.932,296.524C513.903,296.711 512.782,296.727 511.559,296.542C505.639,295.644 502.498,290.648 500.826,285.182C503.495,285.17 509.742,285.117 512.754,284.898C513.332,284.856 513.807,284.8 514.143,284.741ZM514.071,265.4C516.414,266.257 521.891,268.361 525.259,270.47C526.118,271.008 526.833,271.538 527.289,272.051C527.424,272.202 527.532,272.348 527.602,272.492C527.632,272.553 527.673,272.604 527.654,272.659C527.063,274.352 526.33,281.536 523.72,287.704C522.619,290.307 521.186,292.741 519.241,294.415L514.071,265.4ZM513.389,280.062C512.613,280.512 507.55,283.2 499.943,281.643C498.738,275.583 499.007,269.773 499.372,268.628C499.41,268.507 499.564,268.432 499.731,268.32C500.077,268.087 500.542,267.869 501.084,267.657C503.621,266.668 507.721,265.908 510.482,265.469L510.482,265.469C511.072,268.12 512.338,273.986 513.389,280.062Z" style="fill:rgb(66,46,46);"/>
        </g>
    </g>
</svg>
